<svg width="2581" height="800" viewBox="0 0 2581 800" fill="none" xmlns="http://www.w3.org/2000/svg">
<path d="M0.80682 279.597V224.909H382.625V279.597H222.54V734H160.892V279.597H0.80682ZM430.166 734V352.182H486.842V409.852H490.819C497.779 390.96 510.374 375.631 528.603 363.865C546.833 352.099 567.382 346.216 590.251 346.216C594.56 346.216 599.946 346.299 606.409 346.464C612.872 346.63 617.761 346.879 621.075 347.21V406.869C619.086 406.372 614.529 405.626 607.403 404.632C600.443 403.472 593.068 402.892 585.279 402.892C566.719 402.892 550.147 406.786 535.564 414.575C521.146 422.198 509.711 432.804 501.26 446.393C492.974 459.817 488.831 475.146 488.831 492.381V734H430.166ZM931.24 577.892V352.182H989.905V734H931.24V669.369H927.263C918.314 688.759 904.393 705.248 885.501 718.837C866.609 732.26 842.746 738.972 813.911 738.972C790.047 738.972 768.835 733.751 750.274 723.311C731.714 712.705 717.13 696.796 706.524 675.584C695.918 654.206 690.615 627.277 690.615 594.795V352.182H749.28V590.818C749.28 618.659 757.069 640.866 772.646 657.438C788.39 674.009 808.442 682.295 832.803 682.295C847.386 682.295 862.218 678.567 877.298 671.109C892.545 663.652 905.305 652.217 915.58 636.805C926.02 621.393 931.24 601.756 931.24 577.892ZM1252.47 741.955C1216.67 741.955 1185.85 733.503 1160 716.599C1134.14 699.696 1114.26 676.412 1100.34 646.749C1086.42 617.085 1079.46 583.195 1079.46 545.08C1079.46 506.301 1086.58 472.08 1100.83 442.416C1115.25 412.587 1135.3 389.303 1160.99 372.565C1186.84 355.662 1217 347.21 1251.47 347.21C1278.32 347.21 1302.51 352.182 1324.06 362.125C1345.6 372.068 1363.25 385.989 1377.01 403.886C1390.76 421.784 1399.29 442.665 1402.61 466.528H1343.94C1339.47 449.128 1329.53 433.716 1314.11 420.293C1298.87 406.704 1278.32 399.909 1252.47 399.909C1229.6 399.909 1209.55 405.875 1192.31 417.807C1175.24 429.573 1161.9 446.228 1152.29 467.771C1142.84 489.149 1138.12 514.256 1138.12 543.091C1138.12 572.589 1142.76 598.276 1152.04 620.151C1161.49 642.026 1174.74 659.012 1191.81 671.109C1209.05 683.207 1229.27 689.256 1252.47 689.256C1267.71 689.256 1281.55 686.604 1293.98 681.301C1306.41 675.998 1316.93 668.375 1325.55 658.432C1334.17 648.489 1340.3 636.557 1343.94 622.636H1402.61C1399.29 645.174 1391.09 665.475 1378 683.538C1365.07 701.436 1347.92 715.688 1326.54 726.294C1305.33 736.734 1280.64 741.955 1252.47 741.955ZM1643.48 741.955C1609.01 741.955 1578.77 733.751 1552.75 717.345C1526.9 700.939 1506.68 677.987 1492.1 648.489C1477.68 618.991 1470.47 584.521 1470.47 545.08C1470.47 505.307 1477.68 470.589 1492.1 440.925C1506.68 411.261 1526.9 388.226 1552.75 371.82C1578.77 355.413 1609.01 347.21 1643.48 347.21C1677.95 347.21 1708.11 355.413 1733.97 371.82C1759.98 388.226 1780.2 411.261 1794.62 440.925C1809.2 470.589 1816.49 505.307 1816.49 545.08C1816.49 584.521 1809.2 618.991 1794.62 648.489C1780.2 677.987 1759.98 700.939 1733.97 717.345C1708.11 733.751 1677.95 741.955 1643.48 741.955ZM1643.48 689.256C1669.67 689.256 1691.21 682.544 1708.11 669.121C1725.02 655.697 1737.53 638.048 1745.65 616.173C1753.77 594.298 1757.83 570.6 1757.83 545.08C1757.83 519.559 1753.77 495.778 1745.65 473.737C1737.53 451.696 1725.02 433.882 1708.11 420.293C1691.21 406.704 1669.67 399.909 1643.48 399.909C1617.3 399.909 1595.76 406.704 1578.85 420.293C1561.95 433.882 1549.44 451.696 1541.32 473.737C1533.2 495.778 1529.14 519.559 1529.14 545.08C1529.14 570.6 1533.2 594.298 1541.32 616.173C1549.44 638.048 1561.95 655.697 1578.85 669.121C1595.76 682.544 1617.3 689.256 1643.48 689.256Z" fill="black"/>
<path d="M2097.94 771.499V110.21C2097.94 94.9868 2108.88 82.6572 2122.36 82.6572H2358.89L2339.67 20.4264C2336.18 5.72651 2322.8 -2.99374 2309.77 0.945295L1896.98 107.069C1883.95 111.01 1876.22 126.108 1879.72 140.808L2031.41 779.572C2034.89 794.272 2048.28 802.992 2061.31 799.053L2102.03 786.736C2099.46 782.369 2097.94 777.135 2097.94 771.499Z" fill="#DAE1E5"/>
<path d="M2007.53 517.427C2028.61 604.814 2038.09 644.258 2049.52 692.393C2051.26 699.737 2057.96 704.104 2064.48 702.134C2070.98 700.163 2074.85 692.613 2073.11 685.257C2061.67 637.079 2052.18 597.609 2031.26 510.898C2009.99 422.767 2000.79 384.453 1989.43 336.647C1987.69 329.304 1981 324.937 1974.48 326.907C1967.97 328.877 1964.1 336.427 1965.84 343.783C1977.21 391.658 1986.42 429.986 2007.53 517.427Z" fill="#D71E00"/>
<path d="M2061.98 221.955L1989.53 129.76C1982.85 121.26 1970.45 125.021 1968.43 136.138L1946.54 256.865C1945.19 264.318 1949.45 271.593 1956.05 273.121C1962.66 274.649 1969.11 269.842 1970.46 262.389L1975.77 233.086C1976.47 233.017 1977.14 233.154 1977.84 232.934L2025.01 218.675C2025.48 218.537 2025.81 218.18 2026.24 217.986L2043.71 240.222C2048.18 245.912 2055.89 246.436 2060.95 241.392C2066 236.351 2066.45 227.645 2061.98 221.955ZM1981.16 203.411L1987.46 168.652L2008.32 195.2L1981.16 203.411Z" fill="#D71E00"/>
<path d="M2549.7 82.6572H2122.36C2108.87 82.6572 2097.94 94.9868 2097.94 110.21V771.499C2097.94 786.722 2108.87 799.052 2122.36 799.052H2549.7C2563.19 799.052 2574.12 786.722 2574.12 771.499V110.21C2574.12 94.9868 2563.19 82.6572 2549.7 82.6572Z" fill="#E6EEF4"/>
<path d="M2537.49 137.765C2537.49 130.16 2532.02 123.988 2525.28 123.988H2305.51C2298.77 123.988 2293.3 130.16 2293.3 137.765C2293.3 145.369 2298.77 151.541 2305.51 151.541H2525.28L2513.07 137.765V550.23C2513.07 557.835 2518.54 564.007 2525.28 564.007C2532.02 564.007 2537.49 557.835 2537.49 550.23V137.765Z" fill="black"/>
<path d="M2134.57 744.73C2134.57 752.349 2140.05 758.535 2146.82 758.507L2391.01 757.721C2397.75 757.693 2403.21 751.507 2403.19 743.902C2403.16 736.297 2397.68 730.14 2390.94 730.166L2146.74 730.952L2158.99 744.729V331.426C2158.99 323.821 2153.52 317.649 2146.78 317.649C2140.04 317.649 2134.57 323.821 2134.57 331.426L2134.57 744.73Z" fill="black"/>
<path d="M2366.59 537.747C2365.9 537.238 2365.09 538.01 2365.4 538.891L2385.64 597.373C2387.42 601.409 2384.82 606.177 2380.82 606.177H2290.51C2286.51 606.177 2283.91 601.409 2285.7 597.373L2302.57 538.754C2302.82 537.872 2301.98 537.169 2301.31 537.679C2291.14 545.435 2279.54 551.263 2266.84 551.263C2227.45 551.263 2193.28 513.941 2195.74 468.932C2197.13 443.625 2211.41 421.912 2230.44 408.437C2249.54 394.922 2265.25 393.848 2281.09 398.173C2270.97 384.644 2266.84 367.189 2266.84 348.108C2266.84 299.779 2305.96 261.754 2350.42 272.157C2376.9 278.357 2398.12 302.824 2403.21 332.79C2407.45 357.768 2403.76 381.105 2390.98 398.175C2406.92 393.808 2422.06 394.938 2441.32 408.742C2460.26 422.298 2474.48 443.956 2475.79 469.223C2478.09 514.108 2443.81 551.264 2404.52 551.264C2392.04 551.263 2377.03 545.325 2366.59 537.747Z" fill="black"/>
<path d="M2134.57 275.532C2134.57 283.137 2140.04 289.309 2146.78 289.309C2153.52 289.309 2158.99 283.137 2158.99 275.532V137.765C2158.99 130.16 2153.52 123.988 2146.78 123.988C2140.04 123.988 2134.57 130.16 2134.57 137.765V275.532Z" fill="black"/>
<path d="M2217.21 146.582C2221.53 140.74 2220.82 132.047 2215.64 127.183C2210.47 122.307 2202.76 123.105 2198.45 128.947L2137.4 211.608C2133.08 217.45 2133.79 226.142 2138.97 231.006C2144.14 235.883 2151.85 235.084 2156.16 229.242L2217.21 146.582Z" fill="black"/>
<path d="M2181.36 185.225C2177.62 178.888 2170.04 177.18 2164.42 181.41C2158.81 185.625 2157.29 194.181 2161.04 200.519L2209.88 283.179C2213.62 289.516 2221.2 291.224 2226.82 286.995C2232.43 282.779 2233.95 274.223 2230.2 267.885L2181.36 185.225Z" fill="black"/>
<path d="M2537.49 606.177C2537.49 598.572 2532.02 592.4 2525.28 592.4C2518.54 592.4 2513.07 598.572 2513.07 606.177V743.944C2513.07 751.549 2518.54 757.721 2525.28 757.721C2532.02 757.721 2537.49 751.549 2537.49 743.944V606.177Z" fill="black"/>
<path d="M2454.86 735.129C2450.53 740.969 2451.24 749.663 2456.42 754.527C2461.6 759.403 2469.3 758.605 2473.61 752.763L2534.66 670.101C2538.98 664.26 2538.27 655.567 2533.1 650.703C2527.92 645.826 2520.21 646.625 2515.9 652.467L2454.86 735.129Z" fill="black"/>
<path d="M2490.7 696.471C2494.44 702.809 2502.02 704.516 2507.64 700.287C2513.26 696.071 2514.77 687.515 2511.02 681.177L2462.18 598.517C2458.45 592.18 2450.86 590.472 2445.25 594.702C2439.63 598.917 2438.12 607.473 2441.87 613.811L2490.7 696.471Z" fill="black"/>
</svg>
